<mxfile host="app.diagrams.net" modified="2023-12-10T23:50:52.656Z" agent="Mozilla/5.0 (Macintosh; Intel Mac OS X 10_15_7) AppleWebKit/605.1.15 (KHTML, like Gecko) Version/17.1 Safari/605.1.15" etag="f-_fNnAxiepBPX9Mgrvu" version="22.1.7" type="device">
  <diagram name="Страница — 1" id="BefxsFd64mrLZWhNUKdb">
    <mxGraphModel dx="1026" dy="624" grid="1" gridSize="10" guides="1" tooltips="1" connect="1" arrows="1" fold="1" page="1" pageScale="1" pageWidth="827" pageHeight="1169" math="0" shadow="0">
      <root>
        <mxCell id="0" />
        <mxCell id="1" parent="0" />
        <mxCell id="VEn9iMlR48WHRXBA_X1n-3" value="" style="edgeStyle=orthogonalEdgeStyle;rounded=0;orthogonalLoop=1;jettySize=auto;html=1;" edge="1" parent="1" source="VEn9iMlR48WHRXBA_X1n-1" target="VEn9iMlR48WHRXBA_X1n-2">
          <mxGeometry relative="1" as="geometry" />
        </mxCell>
        <mxCell id="VEn9iMlR48WHRXBA_X1n-1" value="&lt;font style=&quot;font-size: 14px;&quot;&gt;Начало&lt;/font&gt;" style="strokeWidth=2;html=1;shape=mxgraph.flowchart.terminator;whiteSpace=wrap;" vertex="1" parent="1">
          <mxGeometry x="320" y="20" width="160" height="60" as="geometry" />
        </mxCell>
        <mxCell id="VEn9iMlR48WHRXBA_X1n-5" value="" style="edgeStyle=orthogonalEdgeStyle;rounded=0;orthogonalLoop=1;jettySize=auto;html=1;" edge="1" parent="1" source="VEn9iMlR48WHRXBA_X1n-2" target="VEn9iMlR48WHRXBA_X1n-4">
          <mxGeometry relative="1" as="geometry" />
        </mxCell>
        <mxCell id="VEn9iMlR48WHRXBA_X1n-2" value="&lt;font style=&quot;font-size: 14px;&quot;&gt;Получение значений шумовой функции для каждой из 8 точек, создающих единичный куб&lt;/font&gt;" style="whiteSpace=wrap;html=1;strokeWidth=2;" vertex="1" parent="1">
          <mxGeometry x="320" y="110" width="160" height="90" as="geometry" />
        </mxCell>
        <mxCell id="VEn9iMlR48WHRXBA_X1n-9" style="edgeStyle=orthogonalEdgeStyle;rounded=0;orthogonalLoop=1;jettySize=auto;html=1;exitX=0.5;exitY=1;exitDx=0;exitDy=0;entryX=0.5;entryY=0;entryDx=0;entryDy=0;" edge="1" parent="1" source="VEn9iMlR48WHRXBA_X1n-4" target="VEn9iMlR48WHRXBA_X1n-6">
          <mxGeometry relative="1" as="geometry" />
        </mxCell>
        <mxCell id="VEn9iMlR48WHRXBA_X1n-4" value="&lt;font style=&quot;font-size: 14px;&quot;&gt;Интерполяция по x&lt;/font&gt;" style="whiteSpace=wrap;html=1;strokeWidth=2;" vertex="1" parent="1">
          <mxGeometry x="320" y="230" width="160" height="60" as="geometry" />
        </mxCell>
        <mxCell id="VEn9iMlR48WHRXBA_X1n-10" style="edgeStyle=orthogonalEdgeStyle;rounded=0;orthogonalLoop=1;jettySize=auto;html=1;exitX=0.5;exitY=1;exitDx=0;exitDy=0;" edge="1" parent="1" source="VEn9iMlR48WHRXBA_X1n-6" target="VEn9iMlR48WHRXBA_X1n-8">
          <mxGeometry relative="1" as="geometry" />
        </mxCell>
        <mxCell id="VEn9iMlR48WHRXBA_X1n-6" value="&lt;font style=&quot;font-size: 14px;&quot;&gt;Интерполяция по y&lt;/font&gt;" style="whiteSpace=wrap;html=1;strokeWidth=2;" vertex="1" parent="1">
          <mxGeometry x="320" y="320" width="160" height="60" as="geometry" />
        </mxCell>
        <mxCell id="VEn9iMlR48WHRXBA_X1n-12" style="edgeStyle=orthogonalEdgeStyle;rounded=0;orthogonalLoop=1;jettySize=auto;html=1;exitX=0.5;exitY=1;exitDx=0;exitDy=0;" edge="1" parent="1" source="VEn9iMlR48WHRXBA_X1n-8" target="VEn9iMlR48WHRXBA_X1n-11">
          <mxGeometry relative="1" as="geometry" />
        </mxCell>
        <mxCell id="VEn9iMlR48WHRXBA_X1n-8" value="&lt;font style=&quot;font-size: 14px;&quot;&gt;Интерполяция по z&lt;/font&gt;" style="whiteSpace=wrap;html=1;strokeWidth=2;" vertex="1" parent="1">
          <mxGeometry x="320" y="410" width="160" height="60" as="geometry" />
        </mxCell>
        <mxCell id="VEn9iMlR48WHRXBA_X1n-11" value="&lt;span style=&quot;font-size: 14px;&quot;&gt;Конец&lt;/span&gt;" style="strokeWidth=2;html=1;shape=mxgraph.flowchart.terminator;whiteSpace=wrap;" vertex="1" parent="1">
          <mxGeometry x="320" y="500" width="160" height="60" as="geometry" />
        </mxCell>
      </root>
    </mxGraphModel>
  </diagram>
</mxfile>
